%TF.GenerationSoftware,cadlab,cadlab,test*%
%TF.SameCoordinates*%
%TF.FileFunction,Legend,Top*%
%TF.FilePolarity,Positive*%
%TF.Part,Single*%
%FSLAX46Y46*%
%MOMM*%
%LPD*%
%TA.AperFunction,Material*%
%ADD10C,0.15*%
%ADD11C,0.3*%
%ADD12C,0.1875*%
%TD.AperFunction*%
G75*
%TO.C,C1*%
D10*
X6880952Y12502357D02*
G01*
X6833333Y12597595D01*
X6738095Y12692833D01*
X6642857Y12740452D01*
X6452381Y12740452D01*
X6357143Y12692833D01*
X6261905Y12597595D01*
X6214286Y12502357D01*
X6166667Y12359500D01*
X6166667Y12121404D01*
X6214286Y11978547D01*
X6261905Y11883309D01*
X6357143Y11788071D01*
X6452381Y11740452D01*
X6642857Y11740452D01*
X6738095Y11788071D01*
X6833333Y11883309D01*
X6880952Y11978547D01*
X7309524Y12549976D02*
X7404762Y12597595D01*
X7547619Y12740452D01*
X7547619Y11740452D01*
%TO.C,J1*%
X5615000Y4655000D02*
X5615000Y7345000D01*
X385000Y7345000D01*
X385000Y4655000D01*
X5615000Y4655000D01*
X2714286Y8820000D02*
X2714286Y8058095D01*
X2666667Y7915238D01*
X2619048Y7867619D01*
X2523810Y7820000D01*
X2428571Y7820000D01*
X2333333Y7867619D01*
X2285714Y7915238D01*
X2238095Y8058095D01*
X2238095Y8153333D01*
X3190476Y8629524D02*
X3285714Y8677143D01*
X3428571Y8820000D01*
X3428571Y7820000D01*
%TO.C,U1*%
X11125000Y5965000D02*
X12875000Y5965000D01*
X12875000Y6040000D01*
X12875000Y7060000D02*
X12875000Y7940000D01*
X12875000Y8960000D02*
X12875000Y9035000D01*
X11125000Y9035000D01*
X11125000Y8960000D01*
D11*
X9695000Y8450000D03*
D10*
X11190476Y10510000D02*
X11190476Y9795714D01*
X11238095Y9652857D01*
X11333333Y9557619D01*
X11476190Y9510000D01*
X11571429Y9510000D01*
X11714286Y9557619D01*
X11809524Y9652857D01*
X11857143Y9795714D01*
X11857143Y10510000D01*
X12333333Y10319524D02*
X12428571Y10367143D01*
X12571429Y10510000D01*
X12571429Y9510000D01*
%TD.C*%
G04 Board graphics on F.SilkS*
D12*
X17428571Y3035714D02*
X17285714Y3178571D01*
X17142857Y3250000D01*
X16928571Y3250000D01*
X16785714Y3178571D01*
X16642857Y3035714D01*
X16571429Y2821429D01*
X16571429Y2678571D01*
X16642857Y2464286D01*
X16785714Y2321429D01*
X16928571Y2250000D01*
X17142857Y2250000D01*
X17285714Y2321429D01*
X17428571Y2464286D01*
X18714286Y3250000D02*
X18714286Y2250000D01*
X18714286Y3035714D02*
X18571429Y3178571D01*
X18428571Y3250000D01*
X18214286Y3250000D01*
X18071429Y3178571D01*
X17928571Y3035714D01*
X17857143Y2821429D01*
X17857143Y2678571D01*
X17928571Y2464286D01*
X18071429Y2321429D01*
X18214286Y2250000D01*
X18428571Y2250000D01*
X18571429Y2321429D01*
X18714286Y2464286D01*
X20071429Y3750000D02*
X20071429Y2250000D01*
X20071429Y3035714D02*
X19928571Y3178571D01*
X19785714Y3250000D01*
X19571429Y3250000D01*
X19428571Y3178571D01*
X19285714Y3035714D01*
X19214286Y2821429D01*
X19214286Y2678571D01*
X19285714Y2464286D01*
X19428571Y2321429D01*
X19571429Y2250000D01*
X19785714Y2250000D01*
X19928571Y2321429D01*
X20071429Y2464286D01*
X20642857Y3750000D02*
X20642857Y2250000D01*
X22000000Y3250000D02*
X22000000Y2250000D01*
X22000000Y3035714D02*
X21857143Y3178571D01*
X21714286Y3250000D01*
X21500000Y3250000D01*
X21357143Y3178571D01*
X21214286Y3035714D01*
X21142857Y2821429D01*
X21142857Y2678571D01*
X21214286Y2464286D01*
X21357143Y2321429D01*
X21500000Y2250000D01*
X21714286Y2250000D01*
X21857143Y2321429D01*
X22000000Y2464286D01*
X22571429Y3750000D02*
X22571429Y2250000D01*
X22571429Y3035714D02*
X22714286Y3178571D01*
X22857143Y3250000D01*
X23071429Y3250000D01*
X23214286Y3178571D01*
X23357143Y3035714D01*
X23428571Y2821429D01*
X23428571Y2678571D01*
X23357143Y2464286D01*
X23214286Y2321429D01*
X23071429Y2250000D01*
X22857143Y2250000D01*
X22714286Y2321429D01*
X22571429Y2464286D01*
%TA.AperFunction,Material*%
G36*
X8925000Y8438121D02*
X8932342Y8415526D01*
X8946306Y8396306D01*
X8965526Y8382342D01*
X8988121Y8375000D01*
X10145000Y8375000D01*
X10145000Y8525000D01*
X8988121Y8525000D01*
X8965526Y8517658D01*
X8946306Y8503694D01*
X8932342Y8484474D01*
X8925000Y8461879D01*
X8925000Y8438121D01*
X11550000Y8375000D02*
X12450000Y8375000D01*
X12450000Y8525000D01*
X11550000Y8525000D01*
X11550000Y8375000D01*
X13855000Y8375000D02*
X15011879Y8375000D01*
X15034474Y8382342D01*
X15053694Y8396306D01*
X15067658Y8415526D01*
X15075000Y8438121D01*
X15075000Y8461879D01*
X15067658Y8484474D01*
X15053694Y8503694D01*
X15034474Y8517658D01*
X15011879Y8525000D01*
X13855000Y8525000D01*
X13855000Y8375000D01*
G37*
%TD.AperFunction*%
M02*
